<?xml version="1.0" encoding="UTF-8"?>
<svg id="Capa_2" data-name="Capa 2" xmlns="http://www.w3.org/2000/svg" viewBox="0 0 500 500">
  <defs>
    <style>
      .cls-1 {
        fill: #fff;
      }

      .cls-2 {
        fill: none;
        stroke: #b00613;
        stroke-miterlimit: 10;
      }

      .cls-3 {
        fill: #347e67;
      }
    </style>
  </defs>
  <g id="Capa_5" data-name="Capa 5">
    <circle class="cls-3" cx="250" cy="250" r="250"/>
  </g>
  <g id="Capa_4" data-name="Capa 4">
    <path d="M385.14,353.68c-44.44-.13-88.89-.26-133.33-.39,4.25-18.38,8.46-36.76,12.62-55.15,3.93-17.37,7.83-34.75,11.7-52.14,5.87-12.54,11.74-25.08,17.61-37.62l1.18-1.23c-.23-1.47-.16-2.97.18-4.44.62-2.75,2.18-5.37,4.48-7.5.48-.45.99-.88,1.54-1.28,1.27-.93,2.72-1.73,4.3-2.35,3.66-1.43,7.47-1.64,10.83-.83h.03l-.06,10.94c3.44,1.81,6.59,3.48,9.49,5.04,31.13,16.77,31.99,20.11,32.02,20.29h0c2.42,2.71,3.76,6.32,3.4,10.24-.59,6.34-5.79,11.55-12.32,12.33-5.12.61-9.79-1.43-12.74-4.88h-13.44c3.63,7.54,10.66,15.02,16.05,20.06t.02,0c3.93,3.69,6.97,6.06,7.16,6.21h0c5.2,5.96,8.35,13.76,8.35,22.29,0,5.64-1.37,10.97-3.8,15.64h4.03c1.38,0,2.63.54,3.54,1.42.91.87,1.47,2.08,1.47,3.42,0,2.11-1.41,3.91-3.37,4.57,8.96,2.7,15.42,10.41,15.42,19.51,0,1.32-.13,2.6-.4,3.85h1.65c6.85,0,12.4,5.37,12.4,11.98Z"/>
    <path class="cls-1" d="M118.48,353.68c44.44-.13,88.89-.26,133.33-.39-4.25-18.38-8.46-36.76-12.62-55.15-3.93-17.37-7.83-34.75-11.7-52.14-5.87-12.54-11.74-25.08-17.61-37.62l-1.18-1.23c.23-1.47.16-2.97-.18-4.44-.62-2.75-2.18-5.37-4.48-7.5-.48-.45-.99-.88-1.54-1.28-1.27-.93-2.72-1.73-4.3-2.35-3.66-1.43-7.47-1.64-10.83-.83h-.03s.06,10.94.06,10.94c-3.44,1.81-6.59,3.48-9.49,5.04-31.13,16.77-31.99,20.11-32.02,20.29h0c-2.42,2.71-3.76,6.32-3.4,10.24.59,6.34,5.79,11.55,12.32,12.33,5.12.61,9.79-1.43,12.74-4.88h13.44c-3.63,7.54-10.66,15.02-16.05,20.06t-.02,0c-3.93,3.69-6.97,6.06-7.16,6.21h0c-5.2,5.96-8.35,13.76-8.35,22.29,0,5.64,1.37,10.97,3.8,15.64h-4.03c-1.38,0-2.63.54-3.54,1.42-.91.87-1.47,2.08-1.47,3.42,0,2.11,1.41,3.91,3.37,4.57-8.96,2.7-15.42,10.41-15.42,19.51,0,1.32.13,2.6.4,3.85h-1.65c-6.85,0-12.4,5.37-12.4,11.98Z"/>
  </g>
  <g id="Capa_2-2" data-name="Capa 2">
    <line class="cls-2" x1="251.81" y1="355.09" x2="251.81" y2="353.68"/>
    <path d="M251.81,120.7v232.98h-73.15v-36.89h6.74l12.66-21.93v-17.11s.01-.03.03-.03h10.55s.02-.01.02-.02l.99-5.23c2.58-13.69,5.16-27.39,7.74-41.08,1.91-10.13,1.91-20.52,0-30.65-1.91-10.11-3.81-20.23-5.72-30.36,0-.01-.01-.02-.02-.02h-4.35c-7.45,0-13.79-5.88-13.83-13.33-.02-3.73,1.48-7.11,3.93-9.55,1.93-1.93,4.46-3.28,7.28-3.76.01,0,.02-.01.02-.02v-22.97s.01-.03.03-.03h20.62s.03,0,.03.03v22.79s.01.03.03.03h16.03s.03-.01.03-.03v-22.79s.01-.03.03-.03h10.31Z"/>
    <path class="cls-1" d="M325.72,316.79v36.89h-73.91V120.7h10.31s.03,0,.03.03v22.79s0,.03.03.03h16.02s.03-.01.03-.03v-22.79s.01-.03.03-.03h20.62s.03,0,.03.03v22.97s.01.02.02.02c6.37,1.05,11.22,6.58,11.22,13.24,0,3.7-1.5,7.05-3.93,9.48-2.42,2.42-5.78,3.92-9.48,3.92h-6.74s-.02.01-.02.02c-1.29,8.57-2.59,17.13-3.88,25.68-2,13.26-2,26.75,0,40,1.82,12.07,3.64,24.14,5.47,36.2.27,1.81.55,3.62.82,5.44,0,0,.01.02.02.02h11.84s.03.01.03.03v1.37c0,10.31,2.71,20.44,7.87,29.37l4.79,8.3h8.78Z"/>
  </g>
</svg>